<svg xmlns="http://www.w3.org/2000/svg" viewBox="0 0 900.97 746.23"><g data-name="Layer 2"><path d="M27.92 478.71c-36 53.75-37.17 134.72-3.6 162.19 16.43 13.45 40.55 13.56 176.62-27.63 142.66-43.18 179.54-62.48 211.45-42 42.55 27.24 14 85.18 51.67 128.56 77.47 89.11 375.08 48 427.72-105.73 24.91-72.76-3.67-174.79-51.66-239.1-25-33.56-38.7-34.47-46.86-60.07-29.15-91.37 115.91-169.8 94.91-234.28C864.48-12.18 650.9-.77 581.8 2.92 478.12 8.46 240.91 21.13 210.55 125.47c-24.1 82.81 102.82 152.07 72.09 223.53-32.46 75.35-187.33 29.11-254.72 129.71z" fill="#003dff" data-name="Layer 6"/></g></svg>