<svg xmlns="http://www.w3.org/2000/svg" viewBox="0 0 284.69 678.25"><defs><style>.cls-2{fill:#4075DA}.cls-4{fill:#ffb419}.cls-6{fill:#709eff}.cls-7{fill:#2d61f7;opacity:.37}.cls-8{fill:#6148B7}.cls-9{fill:#121077}.cls-10{fill:#9fc2ff}</style></defs><g id="Layer_2" data-name="Layer 2"><g id="Layer_4" data-name="Layer 4"><path d="M284.69 668.28a162.65 162.65 0 00-12.29-15.73c-22.48-25.29-47.39-35.36-97.19-55.49-20.56-8.31-36.23-13.31-56-14-20.85-.73-39.87 3.56-40 7.5-.19 5.43 35.67 6.12 38 18.5 2 10.35-21.56 18.12-20 25.5 3.21 15.19 103.11-16.83 167 31.5a176.4 176.4 0 0114.18 12.19 10 10 0 016.3-9.97z" fill="#eee"/><path class="cls-2" d="M278.46 661.2l-19.37-22.74-.21-.25c-.33-.56-.65-1.13-1-1.71l-.36-.67a9.07 9.07 0 00-9.05-4.71 7.73 7.73 0 00-7 8.23l.17 1.65.2 2a14.6 14.6 0 002.91 7.05l9 12.55 7 9.69.28.38c1.27 1.63 7.05 7.71 20.23 3.59 4.47-1.95 3.18-8.1-2.8-15.06zM153 607.6c-.25-1-.48-1.75-.58-2.09l-.05-.13h-15.53s-.85.84-2.45 2.22l.06-.38-29.8 18.62c-.62.34-1.22.69-1.78 1l-.81.52c-.26.17-.52.34-.76.52l-.69.51-.63.51c-.2.17-.39.35-.57.52l-.53.53q-.21.22-.39.45v.05l-.31.42-.07.09c-.09.13-.17.26-.25.4l-.06.11a3.37 3.37 0 00-.19.38l-.07.14c0 .12-.09.24-.13.36a1 1 0 000 .16c0 .12-.06.23-.08.35v1.24a2.84 2.84 0 00.06.31l.06.23c0 .1.06.2.1.3a2.72 2.72 0 00.11.25l.14.29c0 .08.1.17.15.26s.11.18.18.27.14.19.21.29l.2.26.29.31.22.24.39.36c.07.06.13.13.21.19s.44.37.69.56.15.08.43.2l.3.12a15.93 15.93 0 003.36.86 23.5 23.5 0 002.36.25 38.91 38.91 0 0010.53-1 30.65 30.65 0 006.31-2.5c6.32-2.83 19.39-9.06 29.31-16.31a4 4 0 00.76-.56c2.8-2.7.17-8.36-.7-11.68z"/><path fill="#fff" d="M44.63 231.43L0 258.21l7.24 29.1 47.3-22.16-9.91-33.72z"/><path class="cls-4" d="M0 258.21l27.27 3.96 17.36-30.74L0 258.21z"/><path fill="#ebebff" d="M7.24 287.31l20.03-25.14 27.27 2.98-47.3 22.16z"/><path class="cls-4" d="M244.57 622.55l1.26 15.93a6.12 6.12 0 005.65 5.67h.15a9.14 9.14 0 004.08-.81c1.28-.55 1.71-.73 2.27-2.07a11.08 11.08 0 00.83-4.51l-.27-16.32z"/><path class="cls-6" d="M209.4 128.53v-.17c-1.53-16.67-12.53-30.82-27.91-36a133.21 133.21 0 00-90.13 1.16C66.16 103 47.39 117.41 59.57 158c6.19 20.61 16.75 31.49 22.53 52.06l11.11 5.08-10.34 94.7v-.06l-.16 3 114.92-6.14c-14.35-63.1-3.55-114.43 7.64-145.79a75.87 75.87 0 004.13-32.32z"/><path class="cls-7" d="M96.31 194l-18.83 3.22a96.94 96.94 0 014.61 12.84l11.12 5.08-10.34 94.7v-.06l-.16 3 24-1.28C112.43 261 122 218.31 122 218.31z"/><path class="cls-8" d="M224.1 416.52c-4.47-13.89-8.59-27.9-12-42.1-4.5-18.91-8.66-37.76-12.31-56.27q-1.5-7.63-2.89-15.17l-114.03 6.86c-.33 14.74-.38 27.62-.05 37.3 2 58 14 111 34 170 16 62 16 79 16 79l17-1s-1-51 .66-85.26c.62-12.79 4.19-44.4-2-65.68-.78-2.68-1.82-7.12-2.39-9.85-3.64-17.21-8.84-49.82-6.25-83.21 5.36 14.34 15.51 42.69 35.5 75.5 11 17 18.7 37.81 19 54 .5 26.5 16.59 43.46 29.5 72.5a301.63 301.63 0 0121 71l13.5-.5s7.48-77.5-34.24-207.12z"/><path class="cls-9" d="M107.08 308.38l-24.21 1.46c-.33 14.74-.38 27.62-.05 37.3 2 58 14 111 34 170 16 62 16 79 16 79l4.7-.28c-4.29-21.56-21.58-109.43-32-175-5.23-32.66-2.83-74.97 1.56-112.48z"/><path class="cls-4" d="M132.82 596.14v11.16a6.28 6.28 0 004.69 6.07c1.47.39 3.44-.1 5.42-1a21.1 21.1 0 005.68-4l3.21-3.08-2-10.17z"/><path class="cls-6" d="M62.82 108.14s19-16 49-20c-31 16-50 25-50 25z"/><path class="cls-7" d="M150.42 230.85l29.24-73.71 18.66 32.33-7.83 26.17-40.07 15.21"/><path class="cls-6" d="M210 123.48a64.6 64.6 0 00-10.29-18.43c-12.84-7.14-34 7.23-21.94 47.58 14.2 47.51 9.21 58.54 9.21 58.54l-.35.06c-25.76 10.91-38.67 20.64-108.8 12.5-.11.6-.21 1.19-.31 1.76l-1.92 18.38c14.66 4.19 83.61 20.79 131.7 1.74 8.72-3.45 14.64-11.83 15.85-21.4 2.48-19.58 2.65-52.07-13.15-100.73z"/><path class="cls-7" d="M114.33 165.09s37.2 41.52 66.72-65.34l7.77 7.14-35 89.5-27.21 15.75-14.79-22 2.51-25"/><path class="cls-10" d="M210 123.49c-6.44-17.73-17.81-26.1-18.23-26.41a55.76 55.76 0 00-10.26-4.72 130.93 130.93 0 00-90.13 1.16 88.85 88.85 0 00-17.66 8.6 131.49 131.49 0 0189.95-4.61 59.86 59.86 0 0135.24 28.76c10.87 20.08 15.48 35.67 17.42 45.79 6.35 39.1 2.46 60.3-5 71.5a26.87 26.87 0 0011.86-19.35c2.44-19.58 2.61-52.07-13.19-100.72z"/><path class="cls-6" d="M188 100.06l-5.2-.92s-14 63-54 99c-16-32-25.27-67.1-29.7-78-4.71-11.65-17.32-18.36-29.46-15.14-9.89 2.64-18 11.44-13.82 35.12 0 0 5.69 64 50 92.43a36.36 36.36 0 0023 5.62l4.29-2.39c36.64-20.09 51.5-110.97 54.89-135.72z"/><path d="M190.76 250.72c0 1.48.07 3 .12 4.48a25 25 0 0020.41-11.64 22.75 22.75 0 01-4 2.05 115.59 115.59 0 01-16.53 5.11z" fill="none"/><path class="cls-10" d="M155.27 223c16.06-22.71 33.59-61.91 44.55-120.82L188 100.06c-3.41 24.75-18.27 115.63-54.93 135.74l-4.29 2.39A36.36 36.36 0 00155.27 223z"/><path d="M89.46 249.47c13 2.79 61.24 12.64 101.84 14.22a108.31 108.31 0 01-.41-12.29c-32.76 7.48-78.76-.28-101.08-5.13z" opacity=".62" fill="#2d61f7"/><path class="cls-2" d="M128.56 198.48a10 10 0 001.11-1.11C127 192 123 184.6 120.58 179.08c-2.75-6.34-5.41-12.74-7.9-19.21 2.23 6.56 4.56 13.09 7.15 19.53 2.41 6.03 5.94 13.2 8.73 19.08z"/><path class="cls-2" d="M199.88 103.4a10.63 10.63 0 01-2.88-.4c-.16.12-.31.24-.48.35l-.1.08 1.13.2a434.72 434.72 0 01-18.12 66.8A266.12 266.12 0 01165.2 203q-4.11 7.85-8.92 15.27l-2.47 3.67-1.3 1.68a16.31 16.31 0 01-1.36 1.63l-1.46 1.54c-.47.53-1.06.95-1.58 1.43a19.25 19.25 0 01-1.63 1.36l-1.73 1.23a16 16 0 01-1.8 1.13c-.62.34-1.22.73-1.86 1a34.62 34.62 0 01-3.92 1.66c-.67.23-1.33.49-2 .7l-2.07.51c-.35.09-.69.19-1 .26l-1.05.16-2.11.33-2.13.13-1.07.07h-1.07l-2.14-.06-2.12-.26-1.06-.14c-.36-.05-.7-.15-1-.22l-2.09-.47c-.69-.17-1.36-.43-2-.64a16.23 16.23 0 01-2-.73 31.19 31.19 0 01-3.86-1.87c-.62-.36-1.25-.68-1.87-1.07l-1.99-1.3a86 86 0 01-7-5.27 94.21 94.21 0 01-12.34-12.6 127.68 127.68 0 01-18-30.47 165.72 165.72 0 01-6-16.77c-1.7-5.7-3.17-11.48-4.3-17.34a162.51 162.51 0 009.1 34.63 122.37 122.37 0 0017.41 31.39 97.76 97.76 0 0012.41 13.16c2.31 2 4.67 3.86 7.16 5.58l1.87 1.29c.64.42 1.33.79 2 1.19a33.44 33.44 0 004.14 2.09 18.37 18.37 0 002.17.84c.74.24 1.46.53 2.21.74l2.26.55c.38.09.75.2 1.13.26l1.16.17 2.3.33 2.33.12 1.17.05h1.16l2.33-.11 2.32-.31 1.16-.16c.38-.06.76-.17 1.14-.25l2.27-.53c.75-.23 1.48-.49 2.22-.74a37.79 37.79 0 004.32-1.79c.71-.33 1.37-.75 2.06-1.12a20.54 20.54 0 002-1.22l1.92-1.34c.65-.43 1.2-1 1.81-1.48s1.22-1 1.75-1.56l1.63-1.69a18.52 18.52 0 001.52-1.78l1.45-1.84 2.56-3.73q5-7.55 9.26-15.51a272.61 272.61 0 0014.58-32.91 358.4 358.4 0 0010.73-34.3c3-11.32 5.49-22.76 7.64-34.26a11.06 11.06 0 01-1.67.09z"/><path fill="#3c39b7" d="M182.82 99.14l18.35 6.08.59-2.83-18.94-3.25z"/><path class="cls-6" d="M170.88 218.31C154 225.74 132 230 77.78 223.73c-.11.6-.21 1.19-.31 1.76l-1.87 18.38c12.76 3.64 67.78 16.74 112.27 7.48-5.24-11.24-10.39-22.53-16.99-33.04z"/><path class="cls-2" d="M188 199.43c-.17-2-.43-3.93-.73-5.88s-.67-3.88-1-5.81c.24 1.95.47 3.91.64 5.86s.29 3.92.38 5.88.08 3.91 0 5.85c-.06 1-.14 1.94-.29 2.89a15 15 0 01-.51 2.35h-.08c-4.15 1.64-8.25 3.43-12.32 5.19s-8.14 3.48-12.32 4.82a96.22 96.22 0 01-25.94 4.42 229.1 229.1 0 01-26.45-.49c-8.71-.61-23-1.75-31.67-2.79a36.26 36.26 0 01-.26 3.84c.27.15 6.73.53 6.73.53 8.29.92 16.61 1.72 25 2.16 4.46.24 8.94.4 13.42.42s9-.05 13.46-.39a95.44 95.44 0 0026.43-5.28c8.49-3.09 16.25-7.46 24.3-11.1h.26l.39-.09.1-.3a13.41 13.41 0 00.59-3.09c.1-1 .13-2 .14-3 .01-2.04-.09-4.02-.27-5.99z"/><path class="cls-4" d="M109 45.46s7.28 18.18 2.73 49.1c28.18 2.72 33.64 2.72 33.64 2.72a65 65 0 01-1.82-40.91C149.9 33.64 109 45.46 109 45.46z"/><path class="cls-4" d="M111.71 94.56c1 .09 17.19 13.49 17.19 13.49l16.45-10.77-27.53-3.47zm39.86-38.3l6.37-.12a1.38 1.38 0 001.3-1.78l-4.75-15.84s3.43-11.37-4.59-19.8-35-16-43.49-1.6a39 39 0 00-5.33 19.12 17.58 17.58 0 0010.61 16.58l.82.32a8.75 8.75 0 015.62 8.12l.08 5.94a6 6 0 004.59 5.8l17 4.15a7.93 7.93 0 009.75-6.71l.58-4.54z"/><path class="cls-8" d="M101.82 52a7.75 7.75 0 006.68 1.83 6.87 6.87 0 005-5.93c.75-6.17 1.3-12.51 1.3-12.51s8.6.75 9.34 7.48c-2.33 8.89-7.06 19.6-9 23.88a7.54 7.54 0 00-.57 4.63c.5 2.49 1.79 6 5.1 7.72 5.41 2.81 30.44-1.67 30.44-1.67l.76-16.25s-19.06 4.67-22-6.92-.56-12.7-.56-12.7 12.15-13.26 22.42-5c10.08 6.54 17-.18 11-8-3.92-4.67-7.47-6-4.66-11.4s3.55-14-6.54-12.89a30.2 30.2 0 00-5 .92A29.87 29.87 0 01128.61 5h-.14s-12.14-9.72-13.82-1.87-7.29 11-12.33 11.58-6.92 6.65-2.62 14.68c2.25 4.21 1.21 8.32-.28 11.27a9.16 9.16 0 002.4 11.34z"/><path class="cls-9" d="M147.73 316.81l-7.91 34.33c5.36 14.34 15.51 42.69 35.5 75.5 9.63 14.88 16.72 32.67 18.55 47.73-2.95-62.27-46.14-157.56-46.14-157.56z"/><path class="cls-8" d="M124.83 113.94c-1.57 16.12-7.49 37.06-17.71 34.89-18-3.83-27.6-22-63.71 8L37 185.9l25-.47s18.33-38.14 41.53-28.59c7.7 3.38 20.56 17.77 28-42.38.12-.94-2.41-6.25-2.41-6.25s-4.19 4.79-4.29 5.73z"/><path class="cls-4" d="M186.29 100.38L198.45 57l2.93 1.8-1.84 15.78 10.19 8.14a3.74 3.74 0 01.27 5.61l-15.41 15zM59 221.76a69.89 69.89 0 00-15.36 9.08 2.12 2.12 0 00-.06 3.3 3.1 3.1 0 002.76.65l3.9-.95L57 242l20.42-4.54 2.08-10.61s-11.73-.48-20.5-5.09z"/><path class="cls-4" d="M79.54 226.84s-11.77-.47-20.57-5.07c-.62 5.51-1.31 12.71-1.72 20.17l20.21-4.49z"/><path d="M59 221.76a69.49 69.49 0 00-15.36 9.08 2.12 2.12 0 00-.06 3.3l.3.26a3.17 3.17 0 002.11.73l3.3-.09L57 242l.21-.05c.41-7.46 1.1-14.66 1.72-20.17z" fill="#ff9a2c"/><path class="cls-4" d="M43.54 233.36a146.46 146.46 0 01-7.12 14.71c-2.61 4.79-5.46 9.44-8.45 14s-6.23 9-9.66 13.2a124.94 124.94 0 01-11.07 12c1.62-2.2 3.41-4.24 5-6.46.82-1.09 1.65-2.15 2.46-3.24l2.39-3.29c3.15-4.4 6.28-8.82 9.23-13.36s5.91-9.07 8.78-13.67 5.67-9.2 8.44-13.89z"/><path class="cls-4" d="M.75 258.32l13 1.46c4.33.46 8.65.94 13 1.35l13 1.25c4.34.42 8.69.78 13 1.31-4.37.3-8.75.37-13.13.25s-8.74-.42-13.11-.82-8.69-1-13-1.8a106.42 106.42 0 01-12.76-3z"/></g></g></svg>